<svg width="1200" height="820" viewBox="0 0 1200 820" fill="none" xmlns="http://www.w3.org/2000/svg">
  <rect width="1200" height="820" rx="48" fill="#0E1116"/>
  <rect x="58" y="58" width="1084" height="704" rx="32" fill="#F8F4EC"/>
  <rect x="96" y="104" width="298" height="612" rx="22" fill="#111827"/>
  <rect x="426" y="104" width="678" height="152" rx="22" fill="#FF5630"/>
  <rect x="426" y="286" width="326" height="430" rx="22" fill="#FFFFFF"/>
  <rect x="778" y="286" width="326" height="430" rx="22" fill="#FFFFFF"/>
  <text x="128" y="156" fill="#F8F4EC" font-family="Arial, sans-serif" font-size="28" font-weight="700">portfolio agent</text>
  <text x="128" y="210" fill="#9CA3AF" font-family="Arial, sans-serif" font-size="18">visitor question</text>
  <rect x="128" y="238" width="224" height="54" rx="12" fill="#1F2937"/>
  <text x="150" y="272" fill="#F8F4EC" font-family="Arial, sans-serif" font-size="17">Why hire Anuj?</text>
  <path d="M244 344C244 344 269 374 299 344C329 314 354 344 354 344" stroke="#37C2B1" stroke-width="8" stroke-linecap="round"/>
  <rect x="128" y="422" width="224" height="16" rx="8" fill="#374151"/>
  <rect x="128" y="466" width="166" height="16" rx="8" fill="#374151"/>
  <rect x="128" y="510" width="202" height="16" rx="8" fill="#374151"/>
  <rect x="128" y="608" width="132" height="48" rx="24" fill="#37C2B1"/>
  <text x="465" y="161" fill="#111827" font-family="Arial, sans-serif" font-size="24" font-weight="700">Applied AI + backend</text>
  <text x="465" y="204" fill="#111827" font-family="Arial, sans-serif" font-size="58" font-weight="800">rough idea to shipped</text>
  <text x="466" y="344" fill="#111827" font-family="Arial, sans-serif" font-size="24" font-weight="700">proof</text>
  <rect x="466" y="386" width="246" height="74" rx="16" fill="#F3F0E8"/>
  <rect x="466" y="486" width="246" height="74" rx="16" fill="#F3F0E8"/>
  <rect x="466" y="586" width="246" height="74" rx="16" fill="#F3F0E8"/>
  <text x="494" y="431" fill="#111827" font-family="Arial, sans-serif" font-size="22" font-weight="700">LLM apps</text>
  <text x="494" y="531" fill="#111827" font-family="Arial, sans-serif" font-size="22" font-weight="700">FastAPI</text>
  <text x="494" y="631" fill="#111827" font-family="Arial, sans-serif" font-size="22" font-weight="700">Product UX</text>
  <text x="818" y="344" fill="#111827" font-family="Arial, sans-serif" font-size="24" font-weight="700">workflow</text>
  <circle cx="858" cy="422" r="24" fill="#FF5630"/>
  <circle cx="858" cy="528" r="24" fill="#37C2B1"/>
  <circle cx="858" cy="634" r="24" fill="#111827"/>
  <path d="M858 448V504" stroke="#D1D5DB" stroke-width="8" stroke-linecap="round"/>
  <path d="M858 554V610" stroke="#D1D5DB" stroke-width="8" stroke-linecap="round"/>
  <text x="910" y="431" fill="#111827" font-family="Arial, sans-serif" font-size="22" font-weight="700">ask</text>
  <text x="910" y="537" fill="#111827" font-family="Arial, sans-serif" font-size="22" font-weight="700">build</text>
  <text x="910" y="643" fill="#111827" font-family="Arial, sans-serif" font-size="22" font-weight="700">ship</text>
</svg>
